HIERARCHY
ROOT hip
{
  OFFSET 0 90.174 2.4664
  CHANNELS 6 Xposition Yposition Zposition Zrotation Xrotation Yrotation
  JOINT abdomen
  {
    OFFSET 0 -1.186 -1.5018
    CHANNELS 6 Xposition Yposition Zposition Zrotation Xrotation Yrotation
    JOINT abdomen2
    {
      OFFSET 0 9.964 0.2134
      CHANNELS 6 Xposition Yposition Zposition Zrotation Xrotation Yrotation
      JOINT chest
      {
        OFFSET 0 13.134 -3.2573
        CHANNELS 6 Xposition Yposition Zposition Zrotation Xrotation Yrotation
        JOINT neck
        {
          OFFSET 0 20.686 -1.6905
          CHANNELS 6 Xposition Yposition Zposition Zrotation Xrotation Yrotation
          JOINT head
          {
            OFFSET 0 7.238 -0.1237
            CHANNELS 6 Xposition Yposition Zposition Zrotation Xrotation Yrotation
            End Site
            {
              OFFSET 0 0 0
            }
          }
        }
        JOINT lCollar
        {
          OFFSET 1.7069 20.075 5.0056
          CHANNELS 6 Xposition Yposition Zposition Zrotation Xrotation Yrotation
          JOINT lShldr
          {
            OFFSET 13.6458 -0.047 -4.849
            CHANNELS 6 Xposition Yposition Zposition Zrotation Xrotation Yrotation
            JOINT lForeArm
            {
              OFFSET 28.3255 -0.9759 2.2888
              CHANNELS 6 Xposition Yposition Zposition Zrotation Xrotation Yrotation
              JOINT lHand
              {
                OFFSET 22.1583 -0.53 10.8316
                CHANNELS 6 Xposition Yposition Zposition Zrotation Xrotation Yrotation
                JOINT lThumb1
                {
                  OFFSET 0.786 0.112 2.5817
                  CHANNELS 6 Xposition Yposition Zposition Zrotation Xrotation Yrotation
                  JOINT lThumb2
                  {
                    OFFSET 0.3601 -0.878 4.2331
                    CHANNELS 6 Xposition Yposition Zposition Zrotation Xrotation Yrotation
                    JOINT lThumb2_End
                    {
                      OFFSET 1.8127 -1.216 2.2227
                      CHANNELS 6 Xposition Yposition Zposition Zrotation Xrotation Yrotation
                      End Site
                      {
                        OFFSET 0.0181 -0.0122 0.0222
                      }
                    }
                  }
                }
                JOINT lCarpal1
                {
                  OFFSET 0.9571 1.114 1.7695
                  CHANNELS 6 Xposition Yposition Zposition Zrotation Xrotation Yrotation
                  JOINT lIndex1
                  {
                    OFFSET 4.1246 0.487 4.1451
                    CHANNELS 6 Xposition Yposition Zposition Zrotation Xrotation Yrotation
                    JOINT lIndex2
                    {
                      OFFSET 3.4052 -1.454 2.7682
                      CHANNELS 6 Xposition Yposition Zposition Zrotation Xrotation Yrotation
                      JOINT lIndex2_End
                      {
                        OFFSET 1.4531 -1.795 1.2713
                        CHANNELS 6 Xposition Yposition Zposition Zrotation Xrotation Yrotation
                        End Site
                        {
                          OFFSET 0.0145 -0.0179 0.0127
                        }
                      }
                    }
                  }
                  JOINT lMid1
                  {
                    OFFSET 5.6954 0.21 2.1184
                    CHANNELS 6 Xposition Yposition Zposition Zrotation Xrotation Yrotation
                    JOINT lMid2
                    {
                      OFFSET 3.9766 -1.54 2.3863
                      CHANNELS 6 Xposition Yposition Zposition Zrotation Xrotation Yrotation
                      JOINT lMid2_End
                      {
                        OFFSET 1.4042 -1.926 1.125
                        CHANNELS 6 Xposition Yposition Zposition Zrotation Xrotation Yrotation
                        End Site
                        {
                          OFFSET 0.014 -0.0193 0.0113
                        }
                      }
                    }
                  }
                }
                JOINT lCarpal2
                {
                  OFFSET 2.0956 0.66 -0.3894
                  CHANNELS 6 Xposition Yposition Zposition Zrotation Xrotation Yrotation
                  JOINT lRing1
                  {
                    OFFSET 5.0395 -0.09 2.4971
                    CHANNELS 6 Xposition Yposition Zposition Zrotation Xrotation Yrotation
                    JOINT lRing2
                    {
                      OFFSET 3.7921 -1.552 1.4806
                      CHANNELS 6 Xposition Yposition Zposition Zrotation Xrotation Yrotation
                      JOINT lRing2_End
                      {
                        OFFSET 1.4655 -1.808 0.9609
                        CHANNELS 6 Xposition Yposition Zposition Zrotation Xrotation Yrotation
                        End Site
                        {
                          OFFSET 0.0147 -0.0181 0.0096
                        }
                      }
                    }
                  }
                  JOINT lPinky1
                  {
                    OFFSET 4.9141 -1.269 0.3591
                    CHANNELS 6 Xposition Yposition Zposition Zrotation Xrotation Yrotation
                    JOINT lPinky2
                    {
                      OFFSET 3.1477 -1.685 0.8462
                      CHANNELS 6 Xposition Yposition Zposition Zrotation Xrotation Yrotation
                      JOINT lPinky2_End
                      {
                        OFFSET 0.8055 -1.585 0.7955
                        CHANNELS 6 Xposition Yposition Zposition Zrotation Xrotation Yrotation
                        End Site
                        {
                          OFFSET 0.0081 -0.0158 0.008
                        }
                      }
                    }
                  }
                }
              }
            }
          }
        }
        JOINT rCollar
        {
          OFFSET -1.7069 20.075 5.0056
          CHANNELS 6 Xposition Yposition Zposition Zrotation Xrotation Yrotation
          JOINT rShldr
          {
            OFFSET -13.6458 -0.047 -4.849
            CHANNELS 6 Xposition Yposition Zposition Zrotation Xrotation Yrotation
            JOINT rForeArm
            {
              OFFSET -28.3255 -0.9759 2.2888
              CHANNELS 6 Xposition Yposition Zposition Zrotation Xrotation Yrotation
              JOINT rHand
              {
                OFFSET -22.1583 -0.53 10.8316
                CHANNELS 6 Xposition Yposition Zposition Zrotation Xrotation Yrotation
                JOINT rThumb1
                {
                  OFFSET -0.786 0.112 2.5817
                  CHANNELS 6 Xposition Yposition Zposition Zrotation Xrotation Yrotation
                  JOINT rThumb2
                  {
                    OFFSET -0.3601 -0.878 4.2331
                    CHANNELS 6 Xposition Yposition Zposition Zrotation Xrotation Yrotation
                    JOINT rThumb2_End
                    {
                      OFFSET -1.8127 -1.216 2.2227
                      CHANNELS 6 Xposition Yposition Zposition Zrotation Xrotation Yrotation
                      End Site
                      {
                        OFFSET -0.0181 -0.0122 0.0222
                      }
                    }
                  }
                }
                JOINT rCarpal1
                {
                  OFFSET -0.9571 1.114 1.7695
                  CHANNELS 6 Xposition Yposition Zposition Zrotation Xrotation Yrotation
                  JOINT rIndex1
                  {
                    OFFSET -4.1246 0.487 4.1451
                    CHANNELS 6 Xposition Yposition Zposition Zrotation Xrotation Yrotation
                    JOINT rIndex2
                    {
                      OFFSET -3.4052 -1.454 2.7682
                      CHANNELS 6 Xposition Yposition Zposition Zrotation Xrotation Yrotation
                      JOINT rIndex2_End
                      {
                        OFFSET -1.4531 -1.795 1.2713
                        CHANNELS 6 Xposition Yposition Zposition Zrotation Xrotation Yrotation
                        End Site
                        {
                          OFFSET -0.0145 -0.018 0.0127
                        }
                      }
                    }
                  }
                  JOINT rMid1
                  {
                    OFFSET -5.6954 0.21 2.1184
                    CHANNELS 6 Xposition Yposition Zposition Zrotation Xrotation Yrotation
                    JOINT rMid2
                    {
                      OFFSET -3.9766 -1.54 2.3863
                      CHANNELS 6 Xposition Yposition Zposition Zrotation Xrotation Yrotation
                      JOINT rMid2_End
                      {
                        OFFSET -1.4042 -1.926 1.125
                        CHANNELS 6 Xposition Yposition Zposition Zrotation Xrotation Yrotation
                        End Site
                        {
                          OFFSET -0.014 -0.0193 0.0113
                        }
                      }
                    }
                  }
                }
                JOINT rCarpal2
                {
                  OFFSET -2.0956 0.66 -0.3894
                  CHANNELS 6 Xposition Yposition Zposition Zrotation Xrotation Yrotation
                  JOINT rRing1
                  {
                    OFFSET -5.0395 -0.09 2.4971
                    CHANNELS 6 Xposition Yposition Zposition Zrotation Xrotation Yrotation
                    JOINT rRing2
                    {
                      OFFSET -3.7921 -1.552 1.4806
                      CHANNELS 6 Xposition Yposition Zposition Zrotation Xrotation Yrotation
                      JOINT rRing2_End
                      {
                        OFFSET -1.4655 -1.808 0.9609
                        CHANNELS 6 Xposition Yposition Zposition Zrotation Xrotation Yrotation
                        End Site
                        {
                          OFFSET -0.0147 -0.0181 0.0096
                        }
                      }
                    }
                  }
                  JOINT rPinky1
                  {
                    OFFSET -4.9141 -1.269 0.3592
                    CHANNELS 6 Xposition Yposition Zposition Zrotation Xrotation Yrotation
                    JOINT rPinky2
                    {
                      OFFSET -3.1477 -1.685 0.8462
                      CHANNELS 6 Xposition Yposition Zposition Zrotation Xrotation Yrotation
                      JOINT rPinky2_End
                      {
                        OFFSET -0.8055 -1.585 0.7955
                        CHANNELS 6 Xposition Yposition Zposition Zrotation Xrotation Yrotation
                        End Site
                        {
                          OFFSET -0.0081 -0.0158 0.008
                        }
                      }
                    }
                  }
                }
              }
            }
          }
        }
      }
    }
  }
  JOINT lThigh
  {
    OFFSET 8.367 -8.2066 0.5982
    CHANNELS 6 Xposition Yposition Zposition Zrotation Xrotation Yrotation
    JOINT lShin
    {
      OFFSET 2.1923 -43.463 -0.4932
      CHANNELS 6 Xposition Yposition Zposition Zrotation Xrotation Yrotation
      JOINT lFoot
      {
        OFFSET 0.7333 -45.8593 -2.6451
        CHANNELS 6 Xposition Yposition Zposition Zrotation Xrotation Yrotation
        End Site
        {
          OFFSET 2.6618 -4.2699 12.3931
        }
      }
    }
  }
  JOINT rThigh
  {
    OFFSET -8.367 -8.2066 0.5982
    CHANNELS 6 Xposition Yposition Zposition Zrotation Xrotation Yrotation
    JOINT rShin
    {
      OFFSET -2.1923 -43.463 -0.4931
      CHANNELS 6 Xposition Yposition Zposition Zrotation Xrotation Yrotation
      JOINT rFoot
      {
        OFFSET -0.7333 -45.8593 -2.6451
        CHANNELS 6 Xposition Yposition Zposition Zrotation Xrotation Yrotation
        End Site
        {
          OFFSET -2.6618 -4.2699 12.3931
        }
      }
    }
  }
}
MOTION
Frames:	4
Frame Time:	0.0333333
0 90.174 2.4664 0 0 -0 0 -1.186 -1.5018 0 0 -0 0 9.964 0.2134 0 0 -0 0 13.134 -3.2573 0 0 -0 0 20.686 -1.6905 0 0 -0 0 7.238 -0.1237 0 0 -0 1.7069 20.075 5.0056 0 0 -0 13.6458 -0.047 -4.849 1.66051 0.0835086 5.75766 28.3255 -0.9759 2.2888 -0.0175111 0.895433 15.7816 22.1583 -0.53 10.8316 7.95139e-016 -1.98785e-016 -0 0.786 0.112 2.5817 5.46658e-016 -3.97569e-016 -0 0.3601 -0.878 4.2331 5.96354e-016 0 -0 1.8127 -1.216 2.2227 3.97569e-016 1.98785e-016 9.54166e-015 0.9571 1.114 1.7695 1.49089e-016 -3.97569e-016 -0 4.1246 0.487 4.1451 6.4605e-016 0 3.18055e-015 3.4052 -1.454 2.7682 5.96354e-016 0 3.18055e-015 1.4531 -1.795 1.2713 8.94531e-016 -1.98785e-016 6.36111e-015 5.6954 0.21 2.1184 6.4605e-016 0 3.18055e-015 3.9766 -1.54 2.3863 5.96354e-016 0 3.18055e-015 1.4042 -1.926 1.125 8.94531e-016 -1.98785e-016 6.36111e-015 2.0956 0.66 -0.3894 1.49089e-016 -3.97569e-016 -0 5.0395 -0.09 2.4971 6.4605e-016 0 3.18055e-015 3.7921 -1.552 1.4806 5.96354e-016 0 3.18055e-015 1.4655 -1.808 0.9609 8.94531e-016 -1.98785e-016 6.36111e-015 4.9141 -1.269 0.3591 6.4605e-016 0 3.18055e-015 3.1477 -1.685 0.8462 5.96354e-016 0 3.18055e-015 0.8055 -1.585 0.7955 8.94531e-016 -1.98785e-016 6.36111e-015 -1.7069 20.075 5.0056 0 0 -0 -13.6458 -0.047 -4.849 -1.4496 0.0636048 -5.0245 -28.3255 -0.9759 2.2888 -1.74811 1.20616 -16.8394 -22.1583 -0.53 10.8316 -1.19271e-015 1.98785e-016 -3.18055e-015 -0.786 0.112 2.5817 -3.97569e-016 1.98785e-016 -3.18055e-015 -0.3601 -0.878 4.2331 -2.98177e-016 1.98785e-016 -3.18055e-015 -1.8127 -1.216 2.2227 -2.98177e-016 3.97569e-016 -0 -0.9571 1.114 1.7695 4.96962e-016 0 -6.36111e-015 -4.1246 0.487 4.1451 -9.93923e-017 3.97569e-016 -0 -3.4052 -1.454 2.7682 -8.94531e-016 5.96354e-016 -0 -1.4531 -1.795 1.2713 -3.97569e-016 3.97569e-016 -0 -5.6954 0.21 2.1184 -9.93923e-017 3.97569e-016 -0 -3.9766 -1.54 2.3863 -8.94531e-016 5.96354e-016 -0 -1.4042 -1.926 1.125 -3.97569e-016 3.97569e-016 -0 -2.0956 0.66 -0.3894 4.96962e-016 0 -6.36111e-015 -5.0395 -0.09 2.4971 -9.93923e-017 3.97569e-016 -0 -3.7921 -1.552 1.4806 -8.94531e-016 5.96354e-016 -0 -1.4655 -1.808 0.9609 -3.97569e-016 3.97569e-016 -0 -4.9141 -1.269 0.3592 -9.93923e-017 3.97569e-016 -0 -3.1477 -1.685 0.8462 -8.94531e-016 5.96354e-016 -0 -0.8055 -1.585 0.7955 -3.97569e-016 3.97569e-016 -0 8.367 -8.2066 0.5982 -4.66115 -1.03232 0.120763 2.1923 -43.463 -0.4932 0.00990601 1.55097 0.177175 0.7333 -45.8593 -2.6451 4.65196 -0.54114 -0.255042 -8.367 -8.2066 0.5982 4.66115 -1.03222 -0.120763 -2.1923 -43.463 -0.4931 -0.00990459 1.5509 -0.177176 -0.7333 -45.8593 -2.6451 -4.65196 -0.541171 0.255041 
4.7361 50.9754 -27.3308 0 0 -0 0 -1.186 -1.5018 0.124458 -0.100146 -0.0456537 0 9.964 0.2134 0.248837 -0.20039 -0.0910899 0 13.134 -3.2573 0.248837 -0.20039 -0.09109 -8.88178e-016 20.686 -1.6905 0.206235 -0.0588161 0.157554 0 7.238 -0.1237 -0.000712475 0.121501 0.060275 1.7069 20.075 5.0056 -11.3596 0.235917 -2.08077 13.6458 -0.047 -4.849 -21.759 5.20924 -23.7617 28.3255 -0.9759 2.2888 -13.6786 10.4957 -9.73102 22.1583 -0.53 10.8316 5.53324 22.7121 -2.55284 0.786 0.112 2.5817 3.53113e-031 3.18055e-015 -6.36111e-015 0.3601 -0.878 4.2331 -3.18055e-015 3.18055e-015 -3.18055e-015 1.8127 -1.216 2.2227 -0 0 3.18055e-015 0.9571 1.114 1.7695 3.53113e-031 3.18055e-015 -6.36111e-015 4.1246 0.487 4.1451 -1.59028e-014 1.27222e-014 1.27222e-014 3.4052 -1.454 2.7682 0 0 -9.54166e-015 1.4531 -1.795 1.2713 3.18055e-015 6.36111e-015 -9.54166e-015 5.6954 0.21 2.1184 -1.59028e-014 1.27222e-014 1.27222e-014 3.9766 -1.54 2.3863 0 0 -9.54166e-015 1.4042 -1.926 1.125 3.18055e-015 6.36111e-015 -9.54166e-015 2.0956 0.66 -0.3894 3.53113e-031 3.18055e-015 -6.36111e-015 5.0395 -0.09 2.4971 -1.59028e-014 1.27222e-014 1.27222e-014 3.7921 -1.552 1.4806 0 0 -9.54166e-015 1.4655 -1.808 0.9609 3.18055e-015 6.36111e-015 -9.54166e-015 4.9141 -1.269 0.3591 -1.59028e-014 1.27222e-014 1.27222e-014 3.1477 -1.685 0.8462 0 0 -9.54166e-015 0.8055 -1.585 0.7955 3.18055e-015 6.36111e-015 -9.54166e-015 -1.7069 20.075 5.0056 14.0156 0.367557 1.99216 -13.6458 -0.047 -4.849 21.5135 4.96272 23.1892 -28.3255 -0.9759 2.2888 12.6801 9.80592 1.78751 -22.1583 -0.53 10.8316 17.4381 -30.9028 1.79103 -0.786 0.112 2.5817 7.35503e-015 -7.95139e-016 -0 -0.3601 -0.878 4.2331 4.57205e-015 1.98785e-015 -0 -1.8127 -1.216 2.2227 7.7526e-015 1.19271e-015 -0 -0.9571 1.114 1.7695 7.35503e-015 -1.59028e-015 -0 -4.1246 0.487 4.1451 4.96962e-015 1.98785e-015 6.36111e-015 -3.4052 -1.454 2.7682 4.77083e-015 1.19271e-015 -3.18055e-015 -1.4531 -1.795 1.2713 4.37326e-015 2.38542e-015 -0 -5.6954 0.21 2.1184 4.96962e-015 1.98785e-015 6.36111e-015 -3.9766 -1.54 2.3863 4.77083e-015 1.19271e-015 -3.18055e-015 -1.4042 -1.926 1.125 4.37326e-015 2.38542e-015 -0 -2.0956 0.66 -0.3894 7.35503e-015 -1.59028e-015 -0 -5.0395 -0.09 2.4971 4.96962e-015 1.98785e-015 6.36111e-015 -3.7921 -1.552 1.4806 4.77083e-015 1.19271e-015 -3.18055e-015 -1.4655 -1.808 0.9609 4.37326e-015 2.38542e-015 -0 -4.9141 -1.269 0.3592 4.96962e-015 1.98785e-015 6.36111e-015 -3.1477 -1.685 0.8462 4.77083e-015 1.19271e-015 -3.18055e-015 -0.8055 -1.585 0.7955 4.37326e-015 2.38542e-015 -0 8.367 -8.2066 0.5982 -1.71286 -38.6437 5.1205 2.1923 -43.463 -0.4932 22.2629 85.9703 -21.6767 0.7333 -45.8593 -2.6451 9.27355 37.0826 1.01376 -8.367 -8.2066 0.5982 1.7451 -38.6408 -5.12063 -2.1923 -43.463 -0.4931 -22.3346 85.9361 21.7613 -0.7333 -45.8593 -2.6451 -9.23519 37.4423 -1.04088 
8.42292 20.1902 -50.9869 0 0 -0 0 -1.186 -1.5018 0.221056 -0.166722 -0.0814045 3.55271e-015 9.964 0.2134 0.441878 -0.333756 -0.162166 0 13.134 -3.2573 0.441879 -0.333756 -0.162166 0 20.686 -1.6905 0.411479 -0.123226 0.316855 0 7.238 -0.1237 -0.000256648 0.243044 0.120647 1.7069 20.075 5.0056 -20.1863 0.332613 -3.75478 13.6458 -0.047 -4.849 -36.5731 6.14941 -46.8838 28.3255 -0.9759 2.2888 -19.9182 13.9421 -30.1233 22.1583 -0.53 10.8316 12.2507 39.8528 -8.35711 0.786 0.112 2.5817 -9.27246e-009 2.70932e-007 1.68067e-006 0.3601 -0.878 4.2331 -9.37278e-007 6.66202e-007 2.35628e-007 1.8127 -1.216 2.2227 -4.16763e-007 3.18873e-008 -1.57357e-006 0.9571 1.114 1.7695 -6.36111e-015 1.59028e-015 -4.77083e-015 4.1246 0.487 4.1451 -9.27246e-009 2.70932e-007 1.68067e-006 3.4052 -1.454 2.7682 -9.37278e-007 6.66202e-007 2.35628e-007 1.4531 -1.795 1.2713 -4.16763e-007 3.18873e-008 -1.57357e-006 5.6954 0.21 2.1184 -9.27246e-009 2.70932e-007 1.68067e-006 3.9766 -1.54 2.3863 -9.37278e-007 6.66202e-007 2.35628e-007 1.4042 -1.926 1.125 -4.16763e-007 3.18873e-008 -1.57357e-006 2.0956 0.66 -0.3894 -6.36111e-015 1.59028e-015 -4.77083e-015 5.0395 -0.09 2.4971 -9.27246e-009 2.70932e-007 1.68067e-006 3.7921 -1.552 1.4806 -9.37278e-007 6.66202e-007 2.35628e-007 1.4655 -1.808 0.9609 -4.16763e-007 3.18873e-008 -1.57357e-006 4.9141 -1.269 0.3591 -9.27246e-009 2.70932e-007 1.68067e-006 3.1477 -1.685 0.8462 -9.37278e-007 6.66202e-007 2.35628e-007 0.8055 -1.585 0.7955 -4.16763e-007 3.18873e-008 -1.57357e-006 -1.7069 20.075 5.0056 24.8568 0.555174 3.48613 -13.6458 -0.047 -4.849 36.2796 6.19893 45.3522 -28.3255 -0.9759 2.2888 20.7674 14.4758 16.7215 -22.1583 -0.53 10.8316 37.5114 -53.8794 11.8259 -0.786 0.112 2.5817 3.18055e-015 0 -0 -0.3601 -0.878 4.2331 -2.38542e-015 1.59028e-015 -0 -1.8127 -1.216 2.2227 8.74653e-015 -6.36111e-015 -3.18055e-015 -0.9571 1.114 1.7695 7.95139e-016 -1.59028e-015 -3.18055e-015 -4.1246 0.487 4.1451 5.56597e-015 0 6.36111e-015 -3.4052 -1.454 2.7682 8.74653e-015 -1.59028e-015 -3.18055e-015 -1.4531 -1.795 1.2713 7.95139e-015 0 3.18055e-015 -5.6954 0.21 2.1184 5.56597e-015 0 6.36111e-015 -3.9766 -1.54 2.3863 8.74653e-015 -1.59028e-015 -3.18055e-015 -1.4042 -1.926 1.125 7.95139e-015 0 3.18055e-015 -2.0956 0.66 -0.3894 7.95139e-016 -1.59028e-015 -3.18055e-015 -5.0395 -0.09 2.4971 5.56597e-015 0 6.36111e-015 -3.7921 -1.552 1.4806 8.74653e-015 -1.59028e-015 -3.18055e-015 -1.4655 -1.808 0.9609 7.95139e-015 0 3.18055e-015 -4.9141 -1.269 0.3592 5.56597e-015 0 6.36111e-015 -3.1477 -1.685 0.8462 8.74653e-015 -1.59028e-015 -3.18055e-015 -0.8055 -1.585 0.7955 7.95139e-015 0 3.18055e-015 8.367 -8.2066 0.5982 8.18537 -75.4737 29.1823 2.1923 -43.463 -0.4932 172.335 26.6106 -161.785 0.7333 -45.8593 -2.6451 -2.18249 74.2418 17.6763 -8.367 -8.2066 0.5982 -7.99407 -75.4156 -28.9624 -2.1923 -43.463 -0.4931 -172.28 26.6824 161.771 -0.7333 -45.8593 -2.6451 2.94035 74.8121 -18.3588 
8.95229 16.3111 -54.5914 0 0 -0 0 -1.186 -1.5018 0.235322 -0.133718 -0.087144 -1.77636e-015 9.964 0.2134 0.470443 -0.267793 -0.173739 0 13.134 -3.2573 0.470443 -0.267793 -0.173739 -1.77636e-015 20.686 -1.6905 0.610771 -0.20268 0.48225 1.77636e-015 7.238 -0.1237 0.00418574 0.364712 0.181311 1.7069 20.075 5.0056 -21.4658 0.0158439 -4.20687 13.6458 -0.047 -4.849 -38.4945 5.85726 -50.0696 28.3255 -0.9759 2.2888 -20.5512 13.9452 -32.857 22.1583 -0.53 10.8316 13.1737 42.2977 -10.0492 0.786 0.112 2.5817 2.16776e-007 9.69398e-007 -1.52522e-006 0.3601 -0.878 4.2331 -4.35599e-007 2.28163e-007 -2.06734e-006 1.8127 -1.216 2.2227 -3.18055e-015 3.18055e-015 -0 0.9571 1.114 1.7695 -1.59028e-015 0 -3.18055e-015 4.1246 0.487 4.1451 2.16776e-007 9.69398e-007 -1.52522e-006 3.4052 -1.454 2.7682 -4.35599e-007 2.28163e-007 -2.06734e-006 1.4531 -1.795 1.2713 -4.77083e-015 7.95139e-016 -0 5.6954 0.21 2.1184 2.16776e-007 9.69398e-007 -1.52522e-006 3.9766 -1.54 2.3863 -4.35599e-007 2.28163e-007 -2.06734e-006 1.4042 -1.926 1.125 -4.77083e-015 7.95139e-016 -0 2.0956 0.66 -0.3894 -1.59028e-015 0 -3.18055e-015 5.0395 -0.09 2.4971 2.16776e-007 9.69398e-007 -1.52522e-006 3.7921 -1.552 1.4806 -4.35599e-007 2.28163e-007 -2.06734e-006 1.4655 -1.808 0.9609 -4.77083e-015 7.95139e-016 -0 4.9141 -1.269 0.3591 2.16776e-007 9.69398e-007 -1.52522e-006 3.1477 -1.685 0.8462 -4.35599e-007 2.28163e-007 -2.06734e-006 0.8055 -1.585 0.7955 -4.77083e-015 7.95139e-016 -0 -1.7069 20.075 5.0056 26.2386 0.208157 3.48572 -13.6458 -0.047 -4.849 38.3223 6.15399 48.6197 -28.3255 -0.9759 2.2888 21.7923 14.9592 18.9639 -22.1583 -0.53 10.8316 42.0533 -56.8618 14.5572 -0.786 0.112 2.5817 2.63224e-006 -1.92196e-008 4.39436e-006 -0.3601 -0.878 4.2331 -2.63224e-006 1.92198e-008 -4.39436e-006 -1.8127 -1.216 2.2227 2.63224e-006 -1.92196e-008 4.39436e-006 -0.9571 1.114 1.7695 1.76556e-031 -3.18055e-015 3.18055e-015 -4.1246 0.487 4.1451 2.63224e-006 -1.92196e-008 4.39436e-006 -3.4052 -1.454 2.7682 -2.63224e-006 1.92198e-008 -4.39436e-006 -1.4531 -1.795 1.2713 2.63224e-006 -1.92196e-008 4.39436e-006 -5.6954 0.21 2.1184 2.63224e-006 -1.92196e-008 4.39436e-006 -3.9766 -1.54 2.3863 -2.63224e-006 1.92198e-008 -4.39436e-006 -1.4042 -1.926 1.125 2.63224e-006 -1.92196e-008 4.39436e-006 -2.0956 0.66 -0.3894 1.76556e-031 -3.18055e-015 3.18055e-015 -5.0395 -0.09 2.4971 2.63224e-006 -1.92196e-008 4.39436e-006 -3.7921 -1.552 1.4806 -2.63224e-006 1.92198e-008 -4.39436e-006 -1.4655 -1.808 0.9609 2.63224e-006 -1.92196e-008 4.39436e-006 -4.9141 -1.269 0.3592 2.63224e-006 -1.92196e-008 4.39436e-006 -3.1477 -1.685 0.8462 -2.63224e-006 1.92198e-008 -4.39436e-006 -0.8055 -1.585 0.7955 2.63224e-006 -1.92196e-008 4.39436e-006 8.367 -8.2066 0.5982 40.6012 -86.2053 73.6078 2.1923 -43.463 -0.4932 172.116 16.7478 -154.082 0.7333 -45.8593 -2.6451 -57.9679 82.029 73.9366 -8.367 -8.2066 0.5982 -38.406 -86.1589 -71.2316 -2.1923 -43.463 -0.4931 -172.074 16.8322 154.173 -0.7333 -45.8593 -2.6451 62.0336 82.1877 -77.8654 
